<svg width="49" height="49" viewBox="0 0 49 49" fill="none" xmlns="http://www.w3.org/2000/svg">
<path d="M22.2334 15.4062L30.6917 0.90625C34.357 1.87292 37.6098 3.64514 40.4502 6.22292C43.2906 8.80069 45.3544 11.8618 46.6417 15.4062H22.2334ZM15.5271 21.4479L7.25003 6.94792C9.42503 4.81319 11.9529 3.12153 14.8335 1.87292C17.7142 0.624306 20.8253 0 24.1667 0C24.6903 0 25.2945 0.0306114 25.9792 0.0918336C26.6639 0.153056 27.2882 0.223139 27.8521 0.302083L15.5271 21.4479ZM0.785444 30.2083C0.543777 29.2417 0.352055 28.2549 0.210277 27.2479C0.0684991 26.241 -0.00158396 25.2139 2.71537e-05 24.1667C2.71537e-05 21.3069 0.463222 18.6083 1.38961 16.0708C2.316 13.5333 3.62503 11.2174 5.31669 9.12292L17.5209 30.2083H0.785444ZM17.7021 47.4271C14.0368 46.4604 10.7743 44.6882 7.91461 42.1104C5.05489 39.5326 2.98058 36.4715 1.69169 32.9271H26.0396L17.7021 47.4271ZM24.1667 48.3333C23.5625 48.3333 22.9479 48.2931 22.3228 48.2125C21.6977 48.1319 21.104 48.0514 20.5417 47.9708L32.8063 26.8854L41.0834 41.3854C38.9084 43.5201 36.3813 45.2118 33.5023 46.4604C30.6232 47.709 27.5114 48.3333 24.1667 48.3333ZM43.0167 39.2104L30.8125 18.125H47.5479C47.7896 19.0917 47.9813 20.0785 48.1231 21.0854C48.2649 22.0924 48.335 23.1194 48.3334 24.1667C48.3334 26.9861 47.8404 29.6847 46.8544 32.2625C45.8684 34.8403 44.5891 37.1562 43.0167 39.2104Z" fill="#8A38F5"/>
</svg>
