<svg width="40" height="34" viewBox="0 0 40 34" fill="none" xmlns="http://www.w3.org/2000/svg">
<path d="M4.21875 0C3.09987 0 2.02681 0.444474 1.23564 1.23564C0.444474 2.02681 0 3.09987 0 4.21875V12.6562C0 13.7751 0.444474 14.8482 1.23564 15.6394C2.02681 16.4305 3.09987 16.875 4.21875 16.875H35.1562C36.2751 16.875 37.3482 16.4305 38.1394 15.6394C38.9305 14.8482 39.375 13.7751 39.375 12.6562V4.21875C39.375 3.09987 38.9305 2.02681 38.1394 1.23564C37.3482 0.444474 36.2751 0 35.1562 0H4.21875ZM4.21875 22.5C3.09987 22.5 2.02681 22.9445 1.23564 23.7356C0.444474 24.5268 0 25.5999 0 26.7188V29.5312C0 30.6501 0.444474 31.7232 1.23564 32.5144C2.02681 33.3055 3.09987 33.75 4.21875 33.75H12.6562C13.7751 33.75 14.8482 33.3055 15.6394 32.5144C16.4305 31.7232 16.875 30.6501 16.875 29.5312V26.7188C16.875 25.5999 16.4305 24.5268 15.6394 23.7356C14.8482 22.9445 13.7751 22.5 12.6562 22.5H4.21875ZM26.7188 22.5C25.5999 22.5 24.5268 22.9445 23.7356 23.7356C22.9445 24.5268 22.5 25.5999 22.5 26.7188V29.5312C22.5 30.6501 22.9445 31.7232 23.7356 32.5144C24.5268 33.3055 25.5999 33.75 26.7188 33.75H35.1562C36.2751 33.75 37.3482 33.3055 38.1394 32.5144C38.9305 31.7232 39.375 30.6501 39.375 29.5312V26.7188C39.375 25.5999 38.9305 24.5268 38.1394 23.7356C37.3482 22.9445 36.2751 22.5 35.1562 22.5H26.7188Z" fill="#6438E0"/>
</svg>
