<svg width="39" height="53" viewBox="0 0 39 53" fill="none" xmlns="http://www.w3.org/2000/svg">
<path d="M3.47879 33.0485V48.703H34.7879V3.47879H3.47879V33.0485ZM6.95758 36.5273V6.95758H22.6121L31.3091 15.6545V45.2243H15.6545L6.95758 36.5273ZM1.73939 0H36.5273C37.5013 0 38.2667 0.765334 38.2667 1.73939V50.4424C38.2667 51.4165 37.5013 52.1818 36.5273 52.1818H1.73939C0.765333 52.1818 0 51.4165 0 50.4424V1.73939C0 0.765334 0.765333 0 1.73939 0ZM24.3515 3.47879H34.7879V13.9152L24.3515 3.47879ZM3.47879 38.2667L13.9152 48.703H3.47879V38.2667ZM12.1758 13.9152C11.2017 13.9152 10.4364 14.6805 10.4364 15.6545C10.4364 16.6286 11.2017 17.3939 12.1758 17.3939H22.6121C23.5862 17.3939 24.3515 16.6286 24.3515 15.6545C24.3515 14.6805 23.5862 13.9152 22.6121 13.9152H12.1758ZM12.1758 20.8727C11.2017 20.8727 10.4364 21.6381 10.4364 22.6121C10.4364 23.5862 11.2017 24.3515 12.1758 24.3515H15.6545C16.6286 24.3515 17.3939 23.5862 17.3939 22.6121C17.3939 21.6381 16.6286 20.8727 15.6545 20.8727H12.1758Z" fill="#6438E0"/>
</svg>
