<svg width="64" height="48" viewBox="0 0 64 48" fill="none" xmlns="http://www.w3.org/2000/svg">
<g filter="url(#filter0_d_47_109)">
<path d="M4.05005 23.5473L4.05005 1.14306L22.5202 6.95158L31.55 19.3984L40.9903 6.95158L59.05 1.14307L59.05 23.5473L31.55 40.1431L4.05005 23.5473Z" fill="white" fill-opacity="0.3" shape-rendering="crispEdges"/>
<path d="M31.5501 16.909L26.6247 9.85583L31.5501 12.3452L36.065 9.85583L31.5501 16.909Z" fill="white" fill-opacity="0.3" shape-rendering="crispEdges"/>
<path d="M4.05005 23.5473L4.05005 1.14306L22.5202 6.95158L31.55 19.3984L40.9903 6.95158L59.05 1.14307L59.05 23.5473L31.55 40.1431L4.05005 23.5473Z" stroke="white" stroke-width="0.5" shape-rendering="crispEdges"/>
<path d="M31.5501 16.909L26.6247 9.85583L31.5501 12.3452L36.065 9.85583L31.5501 16.909Z" stroke="white" stroke-width="0.5" shape-rendering="crispEdges"/>
</g>
<defs>
<filter id="filter0_d_47_109" x="4.88758e-05" y="4.88758e-05" width="63.1" height="47.235" filterUnits="userSpaceOnUse" color-interpolation-filters="sRGB">
<feFlood flood-opacity="0" result="BackgroundImageFix"/>
<feColorMatrix in="SourceAlpha" type="matrix" values="0 0 0 0 0 0 0 0 0 0 0 0 0 0 0 0 0 0 127 0" result="hardAlpha"/>
<feOffset dy="3"/>
<feGaussianBlur stdDeviation="1.9"/>
<feComposite in2="hardAlpha" operator="out"/>
<feColorMatrix type="matrix" values="0 0 0 0 0 0 0 0 0 0 0 0 0 0 0 0 0 0 0.25 0"/>
<feBlend mode="normal" in2="BackgroundImageFix" result="effect1_dropShadow_47_109"/>
<feBlend mode="normal" in="SourceGraphic" in2="effect1_dropShadow_47_109" result="shape"/>
</filter>
</defs>
</svg>
