<svg width="543" height="956" viewBox="0 0 543 956" fill="none" xmlns="http://www.w3.org/2000/svg">
<path d="M55 909L144 955.5L91.5 870L23 845L55 909Z" fill="url(#paint0_linear_157_21)"/>
<path d="M277.637 866.786C150.04 821.97 24.6506 730.204 -22.0948 689.922L-163 -221.708L282.961 490.849C157.558 421.181 21.0129 290.718 -31.5843 234.194C-5.93663 397.487 185.25 723.961 277.637 866.786Z" fill="url(#paint1_linear_157_21)"/>
<path d="M322.5 267.5L274 223.5L380.5 213L463.5 267.5H322.5Z" fill="url(#paint2_linear_157_21)"/>
<path d="M472.5 721.5L444 705V660L542.5 669L472.5 721.5Z" fill="url(#paint3_linear_157_21)"/>
<defs>
<linearGradient id="paint0_linear_157_21" x1="83.5" y1="845" x2="83.5" y2="955.5" gradientUnits="userSpaceOnUse">
<stop stop-color="#542FBD"/>
<stop offset="1" stop-color="#46279E"/>
</linearGradient>
<linearGradient id="paint1_linear_157_21" x1="-165.436" y1="165.461" x2="231.119" y2="742.017" gradientUnits="userSpaceOnUse">
<stop stop-color="#361F7A"/>
<stop offset="1" stop-color="#6438E0"/>
</linearGradient>
<linearGradient id="paint2_linear_157_21" x1="216" y1="240" x2="463.5" y2="240.25" gradientUnits="userSpaceOnUse">
<stop stop-color="#9069FF"/>
<stop offset="1" stop-color="#573F99"/>
</linearGradient>
<linearGradient id="paint3_linear_157_21" x1="493.25" y1="660" x2="467" y2="816" gradientUnits="userSpaceOnUse">
<stop stop-color="#744EE0"/>
<stop offset="1" stop-color="#271657"/>
</linearGradient>
</defs>
</svg>
